<?xml version="1.0" encoding="UTF-8"?><svg id="Layer_1" xmlns="http://www.w3.org/2000/svg" viewBox="0 0 896.85 61.35"><defs><style>.cls-1{fill:#30e2fe;}.cls-2{fill:#1a1a1a;}</style></defs><path class="cls-1" d="m37.85,5.45l-6.69,9.67c-2.74-1.65-5.96-3.23-10.04-3.23-3.27,0-6.97,1.86-6.97,5.4s6.24,5.4,9.4,6.43c9.75,2.61,17.84,8.59,17.84,18.53v.06c0,9.64-7.96,19.03-20.66,19.03-8.4,0-14.85-3.09-20.72-7.54l6.11-10.35c4.09,3.04,8.88,5.7,14.47,5.7,4.07,0,8.62-1.99,8.62-6.83,0-4.32-6.44-6.32-10.46-7.55C10.42,32.52,1.95,27.47,1.95,17.31S10.72,0,21.11,0c7.91,0,12.49,2.79,16.74,5.45Z"/><path class="cls-1" d="m92.42,1.42v11.95h-26.72v11.81h25.73v10.99h-25.73v11.81h26.72v11.95h-38.66V1.42h38.66Z"/><path class="cls-1" d="m139.92,1.41l21.32,58.52h-12.65l-4.57-12.55h-20.84l-4.58,12.55h-12.65L127.27,1.41h12.65Zm-12.4,34.02h12.14l-6.07-16.66-6.07,16.66Z"/><path class="cls-1" d="m208.63,5.45l-6.69,9.67c-2.74-1.65-5.96-3.23-10.04-3.23-3.27,0-6.97,1.86-6.97,5.4s6.24,5.4,9.4,6.43c9.75,2.61,17.84,8.59,17.84,18.53v.06c0,9.64-7.96,19.03-20.66,19.03-8.4,0-14.85-3.09-20.72-7.54l6.11-10.35c4.09,3.04,8.88,5.7,14.47,5.7,4.07,0,8.62-1.99,8.62-6.83,0-4.32-6.44-6.32-10.46-7.55-8.32-2.26-16.78-7.31-16.78-17.46S181.5,0,191.88,0c7.91,0,12.49,2.79,16.74,5.45Z"/><path class="cls-1" d="m287.26,30.67c0,16.94-13.79,30.67-30.81,30.67s-30.81-13.73-30.81-30.67S239.43,0,256.45,0s30.81,13.73,30.81,30.67Zm-49.96,0c0,10.57,8.58,19.15,19.15,19.15s19.15-8.58,19.15-19.15c0-10.57-8.58-19.15-19.15-19.15s-19.15,8.58-19.15,19.15Z"/><path class="cls-1" d="m310.32,1.41l26.94,35.47V1.41h11.94v58.52h-10.67l-26.94-35.47v35.47h-11.94V1.41h10.67Zm-10.67,58.52h.28-.28Z"/><path class="cls-1" d="m398.27,5.45l-6.69,9.67c-2.74-1.65-5.96-3.23-10.04-3.23-3.27,0-6.97,1.86-6.97,5.4s6.24,5.4,9.4,6.43c9.75,2.61,17.84,8.59,17.84,18.53v.06c0,9.64-7.96,19.03-20.66,19.03-8.4,0-14.85-3.09-20.72-7.54l6.11-10.35c4.09,3.04,8.88,5.7,14.47,5.7,4.07,0,8.62-1.99,8.62-6.83,0-4.32-6.44-6.32-10.46-7.55-8.32-2.26-16.78-7.31-16.78-17.46S371.14,0,381.52,0c7.91,0,12.49,2.79,16.74,5.45Z"/><path class="cls-2" d="m451.33,1.41v46.57h26.57v11.95h-38.87V1.41h12.3Z"/><path class="cls-2" d="m553.03,30.67c0,16.94-13.79,30.67-30.81,30.67s-30.81-13.73-30.81-30.67,13.79-30.67,30.81-30.67,30.81,13.73,30.81,30.67Zm-49.96,0c0,10.57,8.58,19.15,19.15,19.15s19.15-8.58,19.15-19.15-8.58-19.15-19.15-19.15-19.15,8.58-19.15,19.15Z"/><path class="cls-2" d="m616.35,7.43l-6.1,9.05c-6.77-4.42-11.56-4.95-16.1-4.95-9.54,0-18.76,8.81-18.76,19.15s9.18,19.15,18.76,19.15c6.02,0,9.65-1.27,14.11-3.72v-8.34h-7.75v-11.56h18.74v25.63c-5.48,4.37-11.66,9.52-25.1,9.52-16.07,0-30.99-11.71-30.99-30.67s14.92-30.67,30.99-30.67c7.58.01,15.1,2.44,22.2,7.43Z"/><path class="cls-2" d="m644.67,1.41v58.52h-11.94V1.41h11.94Z"/><path class="cls-2" d="m693.74,5.45l-6.69,9.67c-2.73-1.65-5.96-3.23-10.04-3.23-3.27,0-6.97,1.86-6.97,5.4s6.24,5.4,9.4,6.43c9.75,2.61,17.84,8.59,17.84,18.53v.06c0,9.64-7.96,19.03-20.66,19.03-8.4,0-14.85-3.09-20.72-7.54l6.11-10.35c4.09,3.04,8.88,5.7,14.46,5.7,4.07,0,8.62-1.99,8.62-6.83,0-4.32-6.44-6.32-10.46-7.55-8.32-2.26-16.78-7.31-16.78-17.46s8.77-17.31,19.15-17.31c7.91,0,12.49,2.79,16.74,5.45Z"/><path class="cls-2" d="m753.14,1.41v12.03h-17.29v46.5h-12.3V13.43h-17.29V1.41h46.88Z"/><path class="cls-2" d="m778.63,1.41v58.52h-11.94V1.41h11.94Z"/><path class="cls-2" d="m845.34,7.47l-6.92,10.24c-4.01-3.05-8.79-5.05-14.24-5.05-9.65.13-19,6.36-19.4,18,.41,11.64,9.75,17.87,19.4,18,5.45,0,10.24-2,14.24-5.05l6.92,10.24c-5.57,4.51-12.69,7.47-21.18,7.47-18.79,0-32.05-14.04-32.05-30.67s13.27-30.67,32.05-30.67c8.49,0,15.62,2.96,21.18,7.47Z"/><path class="cls-2" d="m893.32,5.45l-6.69,9.67c-2.74-1.65-5.96-3.23-10.04-3.23-3.27,0-6.97,1.86-6.97,5.4s6.24,5.4,9.4,6.43c9.75,2.61,17.84,8.59,17.84,18.53v.06c0,9.64-7.96,19.03-20.66,19.03-8.4,0-14.85-3.09-20.72-7.54l6.11-10.35c4.09,3.04,8.88,5.7,14.47,5.7,4.07,0,8.62-1.99,8.62-6.83,0-4.32-6.44-6.32-10.46-7.55-8.32-2.26-16.78-7.31-16.78-17.46s8.77-17.31,19.15-17.31c7.91,0,12.49,2.79,16.74,5.45Z"/></svg>
