<?xml version="1.0" encoding="UTF-8"?><svg id="Layer_1" xmlns="http://www.w3.org/2000/svg" viewBox="0 0 896.85 823.72"><defs><style>.cls-1{fill:#30e2fe;}.cls-2{fill:#f88d3b;}.cls-3{fill:#18bfe3;}.cls-4{fill:#ffcc59;}.cls-5{fill:#f46d2b;}.cls-6{fill:#1a1a1a;}.cls-7{fill:#fba747;}</style></defs><g><path class="cls-1" d="m37.85,767.83l-6.69,9.67c-2.74-1.65-5.96-3.23-10.04-3.23-3.27,0-6.97,1.86-6.97,5.4s6.24,5.4,9.4,6.43c9.75,2.61,17.84,8.59,17.84,18.53v.06c0,9.64-7.96,19.03-20.66,19.03-8.4,0-14.85-3.09-20.72-7.54l6.11-10.35c4.09,3.04,8.88,5.7,14.47,5.7,4.07,0,8.62-1.99,8.62-6.83,0-4.32-6.44-6.32-10.46-7.55-8.32-2.26-16.78-7.31-16.78-17.46s8.77-17.31,19.15-17.31c7.91,0,12.49,2.79,16.74,5.45Z"/><path class="cls-1" d="m92.42,763.79v11.95h-26.72v11.81h25.73v10.99h-25.73v11.81h26.72v11.95h-38.66v-58.51h38.66Z"/><path class="cls-1" d="m139.92,763.78l21.32,58.52h-12.65l-4.57-12.55h-20.84l-4.58,12.55h-12.65l21.32-58.52h12.65Zm-12.4,34.02h12.14l-6.07-16.66-6.07,16.66Z"/><path class="cls-1" d="m208.63,767.83l-6.69,9.67c-2.74-1.65-5.96-3.23-10.04-3.23-3.27,0-6.97,1.86-6.97,5.4s6.24,5.4,9.4,6.43c9.75,2.61,17.84,8.59,17.84,18.53v.06c0,9.64-7.96,19.03-20.66,19.03-8.4,0-14.85-3.09-20.72-7.54l6.11-10.35c4.09,3.04,8.88,5.7,14.47,5.7,4.07,0,8.62-1.99,8.62-6.83,0-4.32-6.44-6.32-10.46-7.55-8.32-2.26-16.78-7.31-16.78-17.46s8.77-17.31,19.15-17.31c7.91,0,12.49,2.79,16.74,5.45Z"/><path class="cls-1" d="m287.26,793.05c0,16.94-13.79,30.67-30.81,30.67s-30.81-13.73-30.81-30.67,13.79-30.67,30.81-30.67,30.81,13.73,30.81,30.67Zm-49.96,0c0,10.57,8.58,19.15,19.15,19.15s19.15-8.58,19.15-19.15c0-10.57-8.58-19.15-19.15-19.15s-19.15,8.58-19.15,19.15Z"/><path class="cls-1" d="m310.32,763.78l26.94,35.47v-35.47h11.94v58.52h-10.67l-26.94-35.47v35.47h-11.94v-58.52h10.67Zm-10.67,58.52h.28-.28Z"/><path class="cls-1" d="m398.27,767.83l-6.69,9.67c-2.74-1.65-5.96-3.23-10.04-3.23-3.27,0-6.97,1.86-6.97,5.4s6.24,5.4,9.4,6.43c9.75,2.61,17.84,8.59,17.84,18.53v.06c0,9.64-7.96,19.03-20.66,19.03-8.4,0-14.85-3.09-20.72-7.54l6.11-10.35c4.09,3.04,8.88,5.7,14.47,5.7,4.07,0,8.62-1.99,8.62-6.83,0-4.32-6.44-6.32-10.46-7.55-8.32-2.26-16.78-7.31-16.78-17.46s8.77-17.31,19.15-17.31c7.91,0,12.49,2.79,16.74,5.45Z"/><path class="cls-6" d="m451.33,763.78v46.57h26.57v11.95h-38.87v-58.52h12.3Z"/><path class="cls-6" d="m553.03,793.05c0,16.94-13.79,30.67-30.81,30.67s-30.81-13.73-30.81-30.67,13.79-30.67,30.81-30.67,30.81,13.73,30.81,30.67Zm-49.96,0c0,10.57,8.58,19.15,19.15,19.15s19.15-8.58,19.15-19.15-8.58-19.15-19.15-19.15-19.15,8.58-19.15,19.15Z"/><path class="cls-6" d="m616.35,769.8l-6.1,9.05c-6.77-4.42-11.56-4.95-16.1-4.95-9.54,0-18.76,8.81-18.76,19.15s9.18,19.15,18.76,19.15c6.02,0,9.65-1.27,14.11-3.72v-8.34h-7.75v-11.56h18.74v25.63c-5.48,4.37-11.66,9.52-25.1,9.52-16.07,0-30.99-11.71-30.99-30.67s14.92-30.67,30.99-30.67c7.58.01,15.1,2.44,22.2,7.43Z"/><path class="cls-6" d="m644.67,763.78v58.52h-11.94v-58.52h11.94Z"/><path class="cls-6" d="m693.74,767.83l-6.69,9.67c-2.73-1.65-5.96-3.23-10.04-3.23-3.27,0-6.97,1.86-6.97,5.4s6.24,5.4,9.4,6.43c9.75,2.61,17.84,8.59,17.84,18.53v.06c0,9.64-7.96,19.03-20.66,19.03-8.4,0-14.85-3.09-20.72-7.54l6.11-10.35c4.09,3.04,8.88,5.7,14.46,5.7,4.07,0,8.62-1.99,8.62-6.83,0-4.32-6.44-6.32-10.46-7.55-8.32-2.26-16.78-7.31-16.78-17.46s8.77-17.31,19.15-17.31c7.91,0,12.49,2.79,16.74,5.45Z"/><path class="cls-6" d="m753.14,763.78v12.03h-17.29v46.5h-12.3v-46.5h-17.29v-12.03h46.88Z"/><path class="cls-6" d="m778.63,763.78v58.52h-11.94v-58.52h11.94Z"/><path class="cls-6" d="m845.34,769.85l-6.92,10.24c-4.01-3.05-8.79-5.05-14.24-5.05-9.65.13-19,6.36-19.4,18,.41,11.64,9.75,17.87,19.4,18,5.45,0,10.24-2,14.24-5.05l6.92,10.24c-5.57,4.51-12.69,7.47-21.18,7.47-18.79,0-32.05-14.04-32.05-30.67s13.27-30.67,32.05-30.67c8.49,0,15.62,2.96,21.18,7.47Z"/><path class="cls-6" d="m893.32,767.83l-6.69,9.67c-2.74-1.65-5.96-3.23-10.04-3.23-3.27,0-6.97,1.86-6.97,5.4s6.24,5.4,9.4,6.43c9.75,2.61,17.84,8.59,17.84,18.53v.06c0,9.64-7.96,19.03-20.66,19.03-8.4,0-14.85-3.09-20.72-7.54l6.11-10.35c4.09,3.04,8.88,5.7,14.47,5.7,4.07,0,8.62-1.99,8.62-6.83,0-4.32-6.44-6.32-10.46-7.55-8.32-2.26-16.78-7.31-16.78-17.46s8.77-17.31,19.15-17.31c7.91,0,12.49,2.79,16.74,5.45Z"/></g><g><path class="cls-5" d="m264.67,53.92c108.52-72.38,259.42-71.39,368.26-.06-122.76.06-245.5-.06-368.26.06Z"/><path class="cls-2" d="m202.32,104.13c3.01-3.57,8.23-2.04,12.31-2.55,154.1.17,308.21.14,462.31,0,6.5.51,14.75-2.01,19.2,4.29,14.61,15.48,27.74,32.28,39.51,50-191.52-.17-383.03-.11-574.58-.03,12.23-18.38,25.87-35.85,41.24-51.71Z"/><path class="cls-7" d="m135.21,203.43c208.82,0,417.61-.14,626.4.06,7.4,17.7,13.84,35.79,18.58,54.38-221.33-.6-442.68.51-664.01-.54,5.65-18.21,11.4-36.42,19.03-53.89Z"/><path class="cls-4" d="m106.08,355.47c-.09-16.82.09-33.7,2.3-50.41,226.77.65,453.55.14,680.32.23,1.19,15.49,2.24,31,2.07,46.55-23.66,7.06-43.45,24.2-68.27,27.52-22.1,3.06-45.67.88-65.41-10.16-16.68-9.11-33.84-18.07-52.73-21.5-32.45-6.07-67.25-4.03-97.43,10.16-14.35,6.55-27.75,15.66-43.35,19-14.75,3.04-30.09,3.09-44.93.63-22.55-3.63-40.39-19.37-61.83-26.21-32.36-10.78-68.33-11.01-100.78-.57-21.33,6.64-39.26,21.9-61.61,25.53-21.5,3.38-44.56,2.16-64.24-7.83-8.25-3.94-16.17-8.45-24.11-12.93Z"/><g><path class="cls-3" d="m260.01,396.74c31.12-8.76,65.13-8.45,95.93,1.5,21.07,6.58,38.57,21.67,60.39,26.15,15.66,3.01,31.94,3.09,47.57-.28,13.25-2.92,24.93-10.04,36.93-16.03,35.46-18.46,78.14-20.45,116.27-9.84,23.63,6.21,42.69,23.74,66.94,27.97,13.33,2.21,27.09,2.27,40.45.26,22.21-3.63,40.22-18.35,61.18-25.61-4.57,23.43-10.24,46.91-19.91,68.81-22.58,12.03-49.5,13.3-74.63,12.05-24.96-1.14-48.67-10.41-70.09-22.86-21.67-12.77-47.99-15.06-72.39-10.61-18.61,3.57-34.07,15.26-51.39,22.13-28.76,11.77-61.04,12.93-91.31,7.37-19.4-3.52-36.93-12.85-54.09-22.13-20.28-11.06-44.42-12.71-66.89-9.02-16.31,2.53-30.24,11.94-44.9,18.83-33.16,16.17-72.02,17.42-107.53,9.25-9.02-22.07-15.8-45.02-20.62-68.36,12.17,5.93,23.91,13.36,37.33,16.31,13.96,3.12,28.53,3.2,42.72,1.33,24.76-3.26,44.22-20.99,68.05-27.23Z"/><path class="cls-3" d="m279.73,493.66c30.24-4.54,62.37-3.54,90.77,8.85,17.25,7.17,32.62,18.95,51.25,22.55,13.53,2.55,27.49,2.53,41.13.77,17.36-2.41,32.2-12.28,47.71-19.63,30.89-14.8,66.74-16.85,100.04-10.35,19.09,3.69,36.33,12.99,53.27,22.15,22.49,12.11,49.18,12.42,73.72,7.57-13.36,19.72-28.14,38.44-44.36,55.88-24.08-1.11-46.66-10.64-67.37-22.38-22.61-13.27-50.35-15.46-75.59-9.93-22.35,5.9-40.87,21.33-63.48,26.64-38.09,9.58-80.35,6.86-115.22-12.14-13.36-7.12-26.8-15.03-42.04-17.16-13.7-1.76-27.74-1.84-41.33.59-18.81,3.52-34.32,15.37-51.85,22.27-11.26,4.74-23.29,7.29-35.29,9.33-15.91-16.82-29.9-35.28-42.8-54.46,21.7,3.23,44.87,2.19,64.7-8.05,18.04-9.42,36.34-19.26,56.73-22.5Z"/></g><path class="cls-1" d="m237.41,611.68c35.48-21.19,79.45-25.13,119.16-15.37,16.08,3.83,30.43,12.22,45.13,19.43,32.11,14.52,70.88,13.27,102-3.35,46.38-26.41,106.71-26.58,153.25-.48-5.02,7.57-14.24,11.12-21.3,16.54-92.04,61.41-214.52,72.87-316.63,30.52-29.22-11.92-56.59-28.08-81.61-47.29Z"/></g></svg>
